<?xml version="1.0" encoding="UTF-8"?>
<svg id="Livello_1" data-name="Livello 1" xmlns="http://www.w3.org/2000/svg" viewBox="0 0 500 500">
  <defs>
    <style>
      .cls-2 {
        fill: #e66b1d;
      }

      .cls-3 {
        fill: #353535;
      }

      .cls-4 {
        font-family: BaskOldFace, 'Baskerville Old Face';
        font-size: 50px;
      }
    </style>
  </defs>
  <g transform="translate(250 250) scale(0.9) translate(-250 -250)">
    <text class="cls-4" transform="translate(136.8 331.85)"><tspan x="0" y="0">TAVOLO’</tspan></text>
    <g>
      <g>
        <rect class="cls-2" x="193.97" y="243.69" width="3.86" height="56.89" transform="translate(-76.25 468.02) rotate(-90)"/>
        <rect class="cls-2" x="275.69" y="270.22" width="56.85" height="3.73"/>
        <g>
          <path class="cls-3" d="M300.47,210.75l-37.55,21.81c-.57.33-1.56,1.46-1.56,2.07l-.02,40.06-8.4,4.69-.09-53.51,56.29-32.71,1.37.8-.02,52.08-8.41,4.73-.07-38.82-.18-.94c-.05-.25-1.08-.42-1.35-.27Z"/>
          <path class="cls-3" d="M239.37,235.75c0-1.33-.46-2.26-1.28-2.95l-38.09-22-1.31-.14c-.35-.04-.57.96-.57,1.36l-.03,38.78-8.48-4.67.27-53.62,57.99,33.36.04,53.45c-3.26-1.3-5.58-2.79-8.53-4.59v-38.98Z"/>
          <polygon class="cls-2" points="297.1 250.62 288.81 246.37 288.8 223.19 297.07 218.67 297.1 250.62"/>
          <polygon class="cls-2" points="211.59 246.12 203.11 250.83 203.09 218.73 211.54 223.05 211.59 246.12"/>
        </g>
      </g>
      <path class="cls-3" d="M306.69,187.56c.03-.26-.55-.62-.92-.84l-53.86-31.11c-1.51-.87-2.9-.82-4.4.06l-53.74,31.23c-.38.22-.52.93-.41,1.46-.01.06-.03.13-.04.18-.03.26.55.62.92.84l53.86,31.11c1.51.87,2.9.82,4.4-.06l53.74-31.23c.38-.22.52-.93.41-1.46.01-.06.03-.13.04-.18ZM230.2,192.77c-1.4-1.64-2.08-3.57-2.05-5.5.27-1.5.98-2.94,2.09-4.17,8.78-9.69,31.33-9.35,39.57.25,1.4,1.64,2.08,3.57,2.05,5.5-.27,1.5-.98,2.94-2.09,4.17-8.78,9.69-31.33,9.35-39.57-.25Z"/>
    </g>
  </g>
</svg>