<?xml version="1.0" encoding="UTF-8" standalone="no"?>
<svg
   id="Livello_1"
   data-name="Livello 1"
   viewBox="0 0 500 500"
   version="1.1"
   sodipodi:docname="LogoApp.svg"
   inkscape:version="1.4.3 (0d15f75, 2025-12-25)"
   xmlns:inkscape="http://www.inkscape.org/namespaces/inkscape"
   xmlns:sodipodi="http://sodipodi.sourceforge.net/DTD/sodipodi-0.dtd"
   xmlns="http://www.w3.org/2000/svg"
   xmlns:svg="http://www.w3.org/2000/svg">
  <sodipodi:namedview
     id="namedview7"
     pagecolor="#ffffff"
     bordercolor="#000000"
     borderopacity="0.25"
     inkscape:showpageshadow="2"
     inkscape:pageopacity="0.0"
     inkscape:pagecheckerboard="0"
     inkscape:deskcolor="#d1d1d1"
     inkscape:zoom="1.546"
     inkscape:cx="250"
     inkscape:cy="250"
     inkscape:window-width="1920"
     inkscape:window-height="991"
     inkscape:window-x="-9"
     inkscape:window-y="-9"
     inkscape:window-maximized="1"
     inkscape:current-layer="Livello_1" />
  <defs
     id="defs1">
    <style
       id="style1">
      .cls-2 {
        fill: #e66b1d;
      }

      .cls-3 {
        fill: #353535;
      }

      .cls-4 {
        font-family: BaskOldFace, 'Baskerville Old Face';
        font-size: 50px;
      }
    </style>
  </defs>
  <g
     transform="matrix(2.0013946,0,0,2.1922271,-245.54956,-287.82186)"
     id="g7">
    <text
       class="cls-4"
       transform="translate(136.8,331.85)"
       id="text1"><tspan
         x="0"
         y="0"
         id="tspan1">TAVOLO’</tspan></text>
    <g
       id="g6">
      <g
         id="g5">
        <rect
           class="cls-2"
           x="193.97"
           y="243.69"
           width="3.8599999"
           height="56.889999"
           transform="rotate(-90,195.885,272.135)"
           id="rect1" />
        <rect
           class="cls-2"
           x="275.69"
           y="270.22"
           width="56.849998"
           height="3.73"
           id="rect2" />
        <g
           id="g4">
          <path
             class="cls-3"
             d="m 300.47,210.75 -37.55,21.81 c -0.57,0.33 -1.56,1.46 -1.56,2.07 l -0.02,40.06 -8.4,4.69 -0.09,-53.51 56.29,-32.71 1.37,0.8 -0.02,52.08 -8.41,4.73 -0.07,-38.82 -0.18,-0.94 c -0.05,-0.25 -1.08,-0.42 -1.35,-0.27 z"
             id="path2" />
          <path
             class="cls-3"
             d="m 239.37,235.75 c 0,-1.33 -0.46,-2.26 -1.28,-2.95 l -38.09,-22 -1.31,-0.14 c -0.35,-0.04 -0.57,0.96 -0.57,1.36 l -0.03,38.78 -8.48,-4.67 0.27,-53.62 57.99,33.36 0.04,53.45 c -3.26,-1.3 -5.58,-2.79 -8.53,-4.59 v -38.98 z"
             id="path3" />
          <polygon
             class="cls-2"
             points="288.8,223.19 297.07,218.67 297.1,250.62 288.81,246.37 "
             id="polygon3" />
          <polygon
             class="cls-2"
             points="203.09,218.73 211.54,223.05 211.59,246.12 203.11,250.83 "
             id="polygon4" />
        </g>
      </g>
      <path
         class="cls-3"
         d="m 306.69,187.56 c 0.03,-0.26 -0.55,-0.62 -0.92,-0.84 l -53.86,-31.11 c -1.51,-0.87 -2.9,-0.82 -4.4,0.06 l -53.74,31.23 c -0.38,0.22 -0.52,0.93 -0.41,1.46 -0.01,0.06 -0.03,0.13 -0.04,0.18 -0.03,0.26 0.55,0.62 0.92,0.84 l 53.86,31.11 c 1.51,0.87 2.9,0.82 4.4,-0.06 l 53.74,-31.23 c 0.38,-0.22 0.52,-0.93 0.41,-1.46 0.01,-0.06 0.03,-0.13 0.04,-0.18 z m -76.49,5.21 c -1.4,-1.64 -2.08,-3.57 -2.05,-5.5 0.27,-1.5 0.98,-2.94 2.09,-4.17 8.78,-9.69 31.33,-9.35 39.57,0.25 1.4,1.64 2.08,3.57 2.05,5.5 -0.27,1.5 -0.98,2.94 -2.09,4.17 -8.78,9.69 -31.33,9.35 -39.57,-0.25 z"
         id="path5" />
    </g>
  </g>
</svg>
